# xmcd
#
# Track frame offsets:
#	150
#	15718
#	29950
#	43719
#	57530
#	70834
#	85362
#	99113
#	112534
#	126136
#	138957
#	150222
#
# Disc length: 2223 seconds
#
# Revision: 0
# Processed by: cddbd v1.5.2PL0 Copyright (c) Steve Scherf et al.
# Submitted via: EasyCDDAExtractor 16.0.6.1
#
DISCID=9408ad0c
DTITLE=Συλλογικός δίσκος - Μεγ. Έλληνες συνθέτες-Ζαμπέτας Γιώργος
DYEAR=2008
DGENRE=Ποικίλη
TTITLE0=Ζαμπέτας Γιώργος-χορωδία - Μάλιστα κύριε [Αλέξ. Καγιάντας]
TTITLE1=Τζανετής Πάνος - Χάθηκες (Δεν έχει δρόμο να διαβώ)[Δημ. Χριστοδούλου]
TTITLE2=Μητροπάνος Δημήτρης - Θεσσαλονίκη [Ηλίας Ηλιόπουλος]
TTITLE3=Μαρινέλλα-χορωδία - Τι να φταίει [Δημ. Χριστοδούλου]
TTITLE4=Ζαμπέτας Γιώργος-χορωδία - Το σαραβαλάκι [Πυθαγόρας]
TTITLE5=Μοσχολιού Βίκυ - Πού ήσουνα και χάθηκες [Αλέξ. Καγιάντας]
TTITLE6=Δούκισσα-χορωδία - Η μοντέρνα η Αθήνα [Ναπολέων Ελευθερίου]
TTITLE7=Καναρίδης Μανώλης-χορωδία - Ο πιο καλός ο μαθητής [Χαράλ. Βασιλειάδης]
TTITLE8=Ζαμπέτας Γιώργος-χορωδία - Στον Λευκό Πύργο [Ξενοφών Φιλέρης]
TTITLE9=Βοσκόπουλος Τόλης - Έχασες το τραίνο [Διον. Τζεφρώνης]
TTITLE10=Μοσχολιού Βίκυ - Το γράμμα και η φωτογραφία [Αλέξ. Καγιάντας]
TTITLE11=Ζαμπέτας Γιώργος - Ο πενηντάρης [Ναπολέων Ελευθερίου]
EXTD=
EXTT0=
EXTT1=
EXTT2=
EXTT3=
EXTT4=
EXTT5=
EXTT6=
EXTT7=
EXTT8=
EXTT9=
EXTT10=
EXTT11=
PLAYORDER=
